<?xml version="1.0" encoding="UTF-8" standalone="no"?>
<!-- Created with Inkscape (http://www.inkscape.org/) -->

<svg
   version="1.1"
   id="svg1"
   width="500"
   height="500"
   viewBox="0 0 500 500"
   sodipodi:docname="epigram_logo.png"
   inkscape:version="1.4 (e7c3feb1, 2024-10-09)"
   xmlns:inkscape="http://www.inkscape.org/namespaces/inkscape"
   xmlns:sodipodi="http://sodipodi.sourceforge.net/DTD/sodipodi-0.dtd"
   xmlns="http://www.w3.org/2000/svg"
   xmlns:svg="http://www.w3.org/2000/svg">
  <defs
     id="defs1" />
  <sodipodi:namedview
     id="namedview1"
     pagecolor="#ffffff"
     bordercolor="#000000"
     borderopacity="0.25"
     inkscape:showpageshadow="2"
     inkscape:pageopacity="0.0"
     inkscape:pagecheckerboard="0"
     inkscape:deskcolor="#d1d1d1"
     showguides="false"
     inkscape:zoom="0.71034671"
     inkscape:cx="168.93159"
     inkscape:cy="204.82955"
     inkscape:window-width="1320"
     inkscape:window-height="684"
     inkscape:window-x="0"
     inkscape:window-y="38"
     inkscape:window-maximized="0"
     inkscape:current-layer="g1">
    <inkscape:page
       x="0"
       y="0"
       width="500"
       height="500"
       id="page2"
       margin="0"
       bleed="0" />
  </sodipodi:namedview>
  <g
     inkscape:groupmode="layer"
     inkscape:label="Image"
     id="g1">
    <path
       id="path1"
       style="fill:#000000;stroke-width:0.808634"
       d="m 330.47266,98.636719 c -10.5383,0.172158 -21.15576,2.848611 -30.12469,8.484951 -11.55681,6.72036 -21.02372,16.53067 -28.78439,27.31753 -11.78244,16.37411 -20.84771,34.47677 -29.63375,52.57603 -12.02413,24.96207 -22.63087,50.57154 -34.28335,75.70547 -3.46893,7.43968 -7.03015,14.97134 -10.83295,22.33013 -5.55305,10.77556 -11.73108,21.44368 -19.00003,31.23797 -3.46488,4.66718 -7.35169,9.40129 -11.56719,13.59988 -6.53955,6.58182 -14.13603,12.21805 -22.67795,15.91796 -0.30245,0.1155 -0.9756,0.41314 -1.43784,0.58716 -4.62458,1.86274 -9.59951,2.90182 -14.59607,2.77483 -4.96397,0.0593 -9.94949,0.35165 -14.89578,-0.21941 -0.37228,-0.0528 -1.17179,-0.13846 -1.69546,-0.27359 -5.54158,-1.21974 -10.6225,-4.10461 -14.913368,-7.76636 -5.389303,-4.70461 -9.03427,-11.29857 -10.279919,-18.33371 -0.666856,-3.62236 -0.752507,-7.33355 -0.456954,-10.99939 0.04618,-0.42913 0.106616,-1.23241 0.182628,-1.80301 0.098,-0.838 0.202735,-1.61827 0.321499,-2.35599 0.951607,-5.97787 2.37275,-11.98829 5.347531,-17.31468 3.77328,-7.01429 9.041963,-13.14237 14.947173,-18.44819 5.54895,-4.7895 12.19539,-8.3947 19.27524,-10.22311 1.3997,-0.40012 2.80703,-0.76014 4.14045,-1.06268 1.94932,-0.45756 4.10154,-0.85866 5.96126,-1.16734 1.51969,-0.23834 2.90899,-0.42623 4.39063,-0.5957 0.99971,-0.10983 2.26541,-0.23781 3.37159,-0.32018 7.68373,-0.52942 15.50238,-0.55141 23.07958,-2.25013 3.35163,-0.81423 5.63815,-3.93593 6.36232,-7.1801 1.96091,-7.2738 4.76604,-14.41718 5.58494,-21.99178 0.34691,-3.72321 -0.88681,-7.54189 -3.36254,-10.34606 -2.51409,-2.91297 -6.29108,-4.66998 -10.14256,-4.68906 -4.66118,-0.23754 -9.30515,0.45229 -13.96656,0.40025 -2.12413,0.0341 -4.22591,0.0184 -6.28345,-0.0589 -1.09367,-0.0489 -2.46579,-0.121 -3.66489,-0.23138 -5.69815,-0.51274 -11.46712,-1.63526 -16.57378,-4.31268 -3.37567,-1.78089 -6.36096,-4.54544 -7.76578,-8.15791 -2.08361,-4.99757 -2.39046,-10.55843 -1.91184,-15.89674 1.00064,-9.03969 4.94996,-17.85595 11.48826,-24.24094 3.82071,-3.51946 9.05663,-5.74228 14.3043,-5.18705 6.38859,0.48061 12.21795,3.89097 16.70534,8.32134 0.86742,0.79588 1.68749,1.64077 2.51921,2.47333 0.26581,0.27618 0.8256,0.87185 1.20395,1.27034 6.58409,7.11871 11.93987,15.2341 17.73478,22.97954 1.77815,2.42458 3.55547,4.84977 5.3347,7.27356 13.29598,-15.00194 26.84434,-29.87875 38.2938,-46.37937 1.99866,-3.00066 2.85326,-6.81486 1.92322,-10.33815 -0.8535,-3.57334 -3.24244,-6.56754 -6.05348,-8.84066 -12.63691,-11.23722 -28.26662,-18.97162 -44.74834,-22.6394 -4.97854,-1.11916 -10.07434,-1.59077 -15.16807,-1.73486 -8.18214,-0.31722 -16.39311,-0.30816 -24.55555,0.39029 -7.14291,0.67484 -14.09958,2.59255 -20.84059,4.98947 -10.31411,3.64874 -20.170624,8.79109 -28.635486,15.76639 -8.241844,6.66258 -15.615255,14.44075 -21.63347,23.17301 -6.535019,9.72268 -11.21923,20.90888 -12.255775,32.65048 -0.548144,6.63693 -0.319184,13.32212 0.331481,19.94222 1.353116,10.07426 6.08775,19.40608 12.145657,27.45611 2.371777,3.11659 4.987042,6.03565 7.569653,8.97658 -8.913524,5.68385 -17.669284,11.75692 -25.18043,19.2454 -12.100296,11.84237 -21.327662,26.83688 -25.391836,43.34249 -1.924802,7.7642 -2.558016,15.80935 -2.204358,23.79044 0.273047,8.25311 1.767354,16.48773 4.717963,24.21297 5.903472,15.92527 17.19763,29.91542 31.891287,38.52948 13.551772,8.09155 29.337224,12.24694 45.09719,12.28708 8.048194,0.11617 16.107404,-0.0832 24.130904,-0.7365 8.26889,-0.7099 16.44832,-2.42993 24.28571,-5.16498 4.04037,-1.37098 8.00057,-2.96523 11.94263,-4.59427 1.33385,2.07943 2.5511,4.29207 4.29868,6.05646 2.52699,2.2433 5.97883,2.83619 9.17039,3.52898 5.03345,0.81884 10.14598,0.26648 15.21531,0.44883 6.21295,-0.0247 12.50684,0.10553 18.60991,-1.22616 4.60358,-1.27333 8.21716,-5.04078 9.9811,-9.39796 0.31603,-0.71555 0.7726,-1.69474 1.1258,-2.52264 4.18515,-9.6196 7.48977,-19.56185 11.31857,-29.31328 7.52256,-19.67514 15.50248,-39.15206 23.36539,-58.70418 7.84989,-19.4208 15.78158,-38.82345 24.15509,-57.98529 9.11811,-20.81322 18.63733,-41.49789 29.91255,-61.24586 3.38905,-5.76627 6.97834,-11.44119 11.19487,-16.64476 0.61193,-0.75537 1.40664,-1.70539 2.12337,-2.50972 2.29973,-2.54255 4.7318,-5.18417 7.94692,-6.55131 1.76792,-0.78561 3.68753,0.24805 5.1095,1.29397 2.22374,1.68274 4.3509,3.82471 5.98427,5.90964 6.63649,8.57073 11.75406,18.19321 16.41992,27.94335 0.61784,1.3034 1.25555,2.65336 1.86323,3.99104 5.20914,11.25809 9.87379,22.69904 14.26959,34.31561 6.63648,17.52524 12.68253,35.43032 18.79558,53.21804 11.87213,34.63507 23.05547,69.50026 34.24697,104.35943 1.35841,3.87584 2.62527,8.06864 5.76666,10.91624 3.18292,2.8193 7.56404,3.67332 11.69755,3.76166 9.32877,0.57388 18.70459,0.63387 28.02511,-0.0948 4.49148,-0.52565 8.97721,-2.99901 11.00863,-7.17225 1.95646,-3.79195 1.78217,-8.39092 0.21285,-12.28478 -7.45966,-24.19469 -15.15829,-48.31545 -22.9096,-72.41841 -10.40286,-32.1243 -21.20736,-64.13295 -33.25441,-95.68468 -4.81175,-12.27793 -9.88604,-24.45598 -15.33279,-36.4661 -4.76927,-10.12783 -9.94469,-20.06196 -15.37126,-29.85165 -7.24489,-12.64025 -16.01392,-24.6263 -27.26443,-34.00013 -7.99396,-6.66278 -17.58106,-11.74372 -27.96673,-13.242475 -2.90424,-0.449045 -5.84783,-0.614154 -8.78499,-0.575276 z" />
  </g>
</svg>
