<svg version="1.1" id="Layer_1" xmlns:x="ns_extend;" xmlns:i="ns_ai;" xmlns:graph="ns_graphs;" xmlns="http://www.w3.org/2000/svg" xmlns:xlink="http://www.w3.org/1999/xlink" x="0px" y="0px" viewBox="0 0 218.5 72" style="enable-background:new 0 0 218.5 72;" xml:space="preserve">
 <style type="text/css">
  .st0{fill:#FFFFFF;filter:url(#Adobe_OpacityMaskFilter);}
	.st1{mask:url(#mask0_1_);}
	.st2{fill-rule:evenodd;clip-rule:evenodd;fill:#FFFFFF;}
	.st3{fill-rule:evenodd;clip-rule:evenodd;fill:#00D4C1;}
 </style>
 <metadata>
  <sfw xmlns="ns_sfw;">
   <slices>
   </slices>
   <sliceSourceBounds bottomLeftOrigin="true" height="72" width="218.5" x="55.8" y="-241.6">
   </sliceSourceBounds>
  </sfw>
 </metadata>
 <g>
  <defs>
   <filter id="Adobe_OpacityMaskFilter" filterUnits="userSpaceOnUse" x="0" y="0" width="199.5" height="72">
    <feColorMatrix type="matrix" values="1 0 0 0 0  0 1 0 0 0  0 0 1 0 0  0 0 0 1 0">
    </feColorMatrix>
   </filter>
  </defs>
  <mask maskUnits="userSpaceOnUse" x="0" y="0" width="199.5" height="72" id="mask0_1_">
   <path class="st0" d="M0.1,0h199.4v72H0.1V0z">
   </path>
  </mask>
  <g class="st1">
   <path class="st2" d="M180.6,0h-18.1l19,71.9h18.1L180.6,0z M130.4,0l19,71.9h18.1L148.5,0H130.4z M100.4,33.2H88.7V15.8h11.7
			c6.7,0,9.7,3.4,9.7,8.7C110.1,29.8,107.1,33.2,100.4,33.2z M128.6,24.5C128.6,8.8,117.9,0,102.4,0H70v72h18.6V48.2h6.6l15,23.8
			h20.9l-16.9-25.8C123,42.9,128.6,35.4,128.6,24.5z M26.3,55.7h-7.7V16.2h7.7c12,0,18.6,7.6,18.6,19.8
			C44.9,48.1,38.2,55.7,26.3,55.7z M27.2,0H0v72h27.2c22.6,0,36.3-14.1,36.3-36C63.6,14.1,49.8,0,27.2,0z">
   </path>
  </g>
  <path class="st3" d="M218.5,0h-21.7l10.8,41.1L218.5,0z">
  </path>
 </g>
</svg>