<svg version="1.1" id="Layer_1" xmlns:x="ns_extend;" xmlns:i="ns_ai;" xmlns:graph="ns_graphs;" xmlns="http://www.w3.org/2000/svg" xmlns:xlink="http://www.w3.org/1999/xlink" x="0px" y="0px" viewBox="0 0 395.1 72" style="enable-background:new 0 0 395.1 72;" xml:space="preserve">
 <style type="text/css">
  .st0{fill:#1180C4;}
	.st1{fill:#D9E2F0;}
	.st2{fill:#C8E4E2;}
	.st3{fill:#9BD3D0;}
	.st4{fill:#CDDBEE;}
	.st5{fill:#91CFCE;}
	.st6{fill:#D0E1F0;}
	.st7{fill:#90C6CA;}
	.st8{fill:#BFD3EA;}
	.st9{fill:#9CBFE2;}
	.st10{fill:#B6CEE7;}
	.st11{fill:#8FBAE0;}
	.st12{fill:#B9D0E9;}
	.st13{fill:#8BB7DF;}
	.st14{fill:#98BDE0;}
	.st15{fill:#98BBE0;}
	.st16{fill:#A6D7D5;}
	.st17{fill:#CDE7E3;}
	.st18{fill:#A4C2E3;}
	.st19{fill:#80AFDC;}
	.st20{fill:#6BA3D6;}
	.st21{fill:#79A8D8;}
	.st22{fill:#BFD3E7;}
	.st23{fill:#A5C3E1;}
	.st24{fill:#8CB7DD;}
	.st25{fill:#82B0DA;}
	.st26{fill:#519AD0;}
	.st27{fill:#1386C6;}
	.st28{fill:#1181C0;}
	.st29{fill:#81BFC5;}
	.st30{fill:#64B7BC;}
	.st31{fill:#42A5B2;}
	.st32{fill:#2E9AB3;}
	.st33{fill:#0888B6;}
	.st34{fill:#1881C1;}
	.st35{fill:#6CC0BD;}
	.st36{fill:#81C4C5;}
	.st37{fill:#B2CBE4;}
	.st38{fill:#9CC0E1;}
	.st39{fill:#7AA9D6;}
	.st40{fill:#619ED1;}
	.st41{fill:#0D4F90;fill-opacity:0.2;}
	.st42{fill:#114D8F;fill-opacity:0.2;}
	.st43{fill:#76A1CC;}
	.st44{fill:#6A91C2;}
	.st45{fill:#4981B3;}
	.st46{fill:#406EA7;}
	.st47{fill:#055293;}
	.st48{fill:#1C4787;}
	.st49{fill:#1F4686;}
	.st50{fill:#114D8F;}
	.st51{fill:#0492A0;}
	.st52{fill:#018188;}
	.st53{fill:#067581;}
	.st54{fill:#056B80;}
	.st55{fill:#005782;}
	.st56{fill:#204580;}
	.st57{fill:#1A4888;}
	.st58{fill:#029DA2;}
	.st59{fill:#0598A6;}
	.st60{fill:#3A98BF;}
	.st61{fill:#467EB3;}
	.st62{fill:#2A5F9D;}
	.st63{fill:#19498A;}
 </style>
 <metadata>
  <sfw xmlns="ns_sfw;">
   <slices>
   </slices>
   <sliceSourceBounds bottomLeftOrigin="true" height="72" width="395.1" x="2.7" y="-236.2">
   </sliceSourceBounds>
  </sfw>
 </metadata>
 <g>
  <g>
   <g transform="translate(216 9)">
    <path class="st0" d="M176.5,41.2c-3.9,6.1-10.7,9.7-17.9,9.5c-8.2-0.3-15.5-7-18.7-18.3c-4-13.9-0.6-23.4,8.4-27.6
				c6.9-3.2,15,0.2,17.3,3.5c-3.2,1.5-3.7,5.5-3,7.9c0.7,2.2,2.4,3.9,4.6,4.5c2.2,0.7,4.6,0.2,6.4-1.2c2.4-1.8,3-4.8,2.4-7.8
				c-0.7-3.2-3.4-5.7-6.4-7.7c-4.4-2.8-9.5-4.2-14.7-4.1c-14.5-0.1-28,12.1-28,28.9c0,17.3,14.9,27.8,27.8,27.8
				c10.1,0.2,19.4-5.1,24.4-13.8C178.9,42.8,176.7,41.4,176.5,41.2">
    </path>
    <path class="st0" d="M116.4,49.1V20.5c0-6-0.7-10.2-3.5-13.9c-3.5-4.6-7.8-6.3-13.4-6.3c-7.9,0-14.3,4.8-18.5,10.4
				c-0.5-1.4-1.2-2.8-2.2-4C75.3,2.1,71,0.4,65.4,0.4c-7.1-0.1-13,3.8-17.2,8.6V1.4H31v1.7h1.1c2.3,0,3.8,1.4,3.8,4.2v41.8
				c0,2.8-1.5,4.2-3.8,4.2H31v1.7h22.1v-1.7h-1.1c-2.3,0-3.8-1.4-3.8-4.2V15.4c2.8-3.7,7.4-7.8,12.4-7.8c2.9-0.2,5.8,1.1,7.5,3.5
				c1.3,2,2,4.5,1.8,6.9v31.1c0,2.8-1.5,4.2-3.8,4.2h-1.1V55h22.1v-1.7h-1.1c-2.3,0-3.8-1.4-3.8-4.2V20.5c0-1.6-0.1-3.2-0.2-4.8
				c2.7-3.8,7.5-8.1,12.6-8.1c2.9-0.2,5.8,1.1,7.5,3.5c1.3,2,2,4.5,1.8,6.9v31.1c0,2.8-1.5,4.2-3.8,4.2h-1.1V55h22.1v-1.7h-1.1
				C117.9,53.3,116.4,51.9,116.4,49.1">
    </path>
    <path class="st0" d="M0,3.1h1.1c2.3,0,3.8,1.4,3.8,4.2v41.4c0,2.8-1.5,4.7-3.8,4.7H0v1.7h22.1v-1.7h-1.1c-2.3,0-3.8-1.4-3.8-4.2
				V7.3c0-2.8,1.5-4.2,3.8-4.2h1.1V1.4H0L0,3.1z">
    </path>
   </g>
   <g>
    <g>
     <path class="st1" d="M12,24c6,0,9-5,12-5s5.5,5,12,5s12-5,12-12S42.5,0,36,0s-9,5-12,5s-5.5-5-12-5S0,5,0,12S6,24,12,24z">
     </path>
     <path class="st2" d="M12,48c6,0,9-5,12-5s5.5,5,12,5s12-5,12-12s-5.5-12-12-12s-9,5-12,5s-5.5-5-12-5S0,29,0,36S6,48,12,48z">
     </path>
     <path class="st3" d="M12,72c6,0,9-5,12-5s5.5,5,12,5s12-5,12-12s-5.5-12-12-12s-9,5-12,5s-5.5-5-12-5S0,53,0,60S6,72,12,72z">
     </path>
     <path class="st4" d="M36,24c6,0,9-5,12-5s5.5,5,12,5s12-5,12-12S66.5,0,60,0s-9,5-12,5s-5.5-5-12-5S24,5,24,12S30,24,36,24z">
     </path>
     <path class="st5" d="M36,48c6,0,9-5,12-5s5.5,5,12,5s12-5,12-12s-5.5-12-12-12s-9,5-12,5s-5.5-5-12-5s-12,5-12,12S30,48,36,48z">
     </path>
     <path class="st6" d="M36,72c6,0,9-5,12-5s5.5,5,12,5s12-5,12-12s-5.5-12-12-12s-9,5-12,5s-5.5-5-12-5s-12,5-12,12S30,72,36,72z">
     </path>
     <path class="st4" d="M60,24c6,0,9-5,12-5s5.5,5,12,5s12-5,12-12S90.5,0,84,0s-9,5-12,5s-5.5-5-12-5S48,5,48,12S54,24,60,24z">
     </path>
     <path class="st7" d="M60,48c6,0,9-5,12-5s5.5,5,12,5s12-5,12-12s-5.5-12-12-12s-9,5-12,5s-5.5-5-12-5s-12,5-12,12S54,48,60,48z">
     </path>
     <path class="st6" d="M60,72c6,0,9-5,12-5s5.5,5,12,5s12-5,12-12s-5.5-12-12-12s-9,5-12,5s-5.5-5-12-5s-12,5-12,12S54,72,60,72z">
     </path>
     <path class="st8" d="M84,24c6,0,9-5,12-5s5.5,5,12,5s12-5,12-12s-5.5-12-12-12s-9,5-12,5s-5.5-5-12-5S72,5,72,12S78,24,84,24z">
     </path>
     <path class="st9" d="M84,48c6,0,9-5,12-5s5.5,5,12,5s12-5,12-12s-5.5-12-12-12s-9,5-12,5s-5.5-5-12-5s-12,5-12,12S78,48,84,48z">
     </path>
     <path class="st4" d="M84,72c6,0,9-5,12-5s5.5,5,12,5s12-5,12-12s-5.5-12-12-12s-9,5-12,5s-5.5-5-12-5s-12,5-12,12S78,72,84,72z">
     </path>
     <path class="st10" d="M108,24c6,0,9-5,12-5s5.5,5,12,5s12-5,12-12s-5.5-12-12-12s-9,5-12,5s-5.5-5-12-5S96,5,96,12
					S102,24,108,24z">
     </path>
     <path class="st11" d="M108,48c6,0,9-5,12-5s5.5,5,12,5s12-5,12-12s-5.5-12-12-12s-9,5-12,5s-5.5-5-12-5s-12,5-12,12
					S102,48,108,48z">
     </path>
     <path class="st12" d="M108,72c6,0,9-5,12-5s5.5,5,12,5s12-5,12-12s-5.5-12-12-12s-9,5-12,5s-5.5-5-12-5s-12,5-12,12
					S102,72,108,72z">
     </path>
     <path class="st13" d="M132,24c6,0,9-5,12-5s5.5,5,12,5s12-5,12-12s-5.5-12-12-12s-9,5-12,5s-5.5-5-12-5s-12,5-12,12
					S126,24,132,24z M132,48c6,0,9-5,12-5s5.5,5,12,5s12-5,12-12s-5.5-12-12-12s-9,5-12,5s-5.5-5-12-5s-12,5-12,12S126,48,132,48z">
     </path>
     <path class="st14" d="M132,72c6,0,9-5,12-5s5.5,5,12,5s12-5,12-12s-5.5-12-12-12s-9,5-12,5s-5.5-5-12-5s-12,5-12,12
					S126,72,132,72z">
     </path>
     <path class="st13" d="M156,24c6,0,9-5,12-5s5.5,5,12,5s12-5,12-12s-5.5-12-12-12s-9,5-12,5s-5.5-5-12-5s-12,5-12,12
					S150,24,156,24z M156,48c6,0,9-5,12-5s5.5,5,12,5s12-5,12-12s-5.5-12-12-12s-9,5-12,5s-5.5-5-12-5s-12,5-12,12S150,48,156,48z">
     </path>
     <path class="st15" d="M156,72c6,0,9-5,12-5s5.5,5,12,5s12-5,12-12s-5.5-12-12-12s-9,5-12,5s-5.5-5-12-5s-12,5-12,12
					S150,72,156,72z">
     </path>
    </g>
    <g>
     <path class="st1" d="M0,12c0,6,5,9,5,12s-5,5.5-5,12s5,12,12,12s12-5.5,12-12s-5-9-5-12s5-5.5,5-12S19,0,12,0S0,6,0,12z">
     </path>
     <path class="st16" d="M0,36c0,6,5,9,5,12s-5,5.5-5,12s5,12,12,12s12-5.5,12-12s-5-9-5-12s5-5.5,5-12s-5-12-12-12S0,30,0,36z">
     </path>
     <path class="st1" d="M24,12c0,6,5,9,5,12s-5,5.5-5,12s5,12,12,12s12-5.5,12-12s-5-9-5-12s5-5.5,5-12S43,0,36,0S24,6,24,12z">
     </path>
     <path class="st17" d="M24,36c0,6,5,9,5,12s-5,5.5-5,12s5,12,12,12s12-5.5,12-12s-5-9-5-12s5-5.5,5-12s-5-12-12-12S24,30,24,36z">
     </path>
     <path class="st4" d="M48,12c0,6,5,9,5,12s-5,5.5-5,12s5,12,12,12s12-5.5,12-12s-5-9-5-12s5-5.5,5-12S67,0,60,0S48,6,48,12z">
     </path>
     <path class="st4" d="M48,36c0,6,5,9,5,12s-5,5.5-5,12s5,12,12,12s12-5.5,12-12s-5-9-5-12s5-5.5,5-12s-5-12-12-12S48,30,48,36z">
     </path>
     <path class="st8" d="M72,12c0,6,5,9,5,12s-5,5.5-5,12s5,12,12,12s12-5.5,12-12s-5-9-5-12s5-5.5,5-12S91,0,84,0S72,6,72,12z">
     </path>
     <path class="st8" d="M72,36c0,6,5,9,5,12s-5,5.5-5,12s5,12,12,12s12-5.5,12-12s-5-9-5-12s5-5.5,5-12s-5-12-12-12S72,30,72,36z">
     </path>
     <path class="st18" d="M96,12c0,6,5,9,5,12s-5,5.5-5,12s5,12,12,12s12-5.5,12-12s-5-9-5-12s5-5.5,5-12s-5-12-12-12S96,6,96,12z">
     </path>
     <path class="st8" d="M96,36c0,6,5,9,5,12s-5,5.5-5,12s5,12,12,12s12-5.5,12-12s-5-9-5-12s5-5.5,5-12s-5-12-12-12S96,30,96,36z">
     </path>
     <path class="st19" d="M120,12c0,6,5,9,5,12s-5,5.5-5,12s5,12,12,12s12-5.5,12-12s-5-9-5-12s5-5.5,5-12s-5-12-12-12S120,6,120,12
					z">
     </path>
     <path class="st18" d="M120,36c0,6,5,9,5,12s-5,5.5-5,12s5,12,12,12s12-5.5,12-12s-5-9-5-12s5-5.5,5-12s-5-12-12-12
					S120,30,120,36z">
     </path>
     <path class="st19" d="M144,12c0,6,5,9,5,12s-5,5.5-5,12s5,12,12,12s12-5.5,12-12s-5-9-5-12s5-5.5,5-12s-5-12-12-12S144,6,144,12
					z">
     </path>
     <path class="st13" d="M144,36c0,6,5,9,5,12s-5,5.5-5,12s5,12,12,12s12-5.5,12-12s-5-9-5-12s5-5.5,5-12s-5-12-12-12
					S144,30,144,36z">
     </path>
     <path class="st20" d="M168,12c0,6,5,9,5,12s-5,5.5-5,12s5,12,12,12s12-5.5,12-12s-5-9-5-12s5-5.5,5-12s-5-12-12-12S168,6,168,12
					z">
     </path>
     <path class="st21" d="M168,36c0,6,5,9,5,12s-5,5.5-5,12s5,12,12,12s12-5.5,12-12s-5-9-5-12s5-5.5,5-12s-5-12-12-12
					S168,30,168,36z">
     </path>
    </g>
    <g>
     <path class="st22" d="M12,24C5.4,24,0,18.6,0,12S5.4,0,12,0s12,5.4,12,12S18.6,24,12,24z M12,16.8c2.6,0,4.8-2.1,4.8-4.8
					S14.6,7.2,12,7.2S7.2,9.4,7.2,12S9.4,16.8,12,16.8z">
     </path>
     <path class="st23" d="M36,24c-6.6,0-12-5.4-12-12S29.4,0,36,0s12,5.4,12,12S42.6,24,36,24z M36,16.8c2.6,0,4.8-2.1,4.8-4.8
					S38.6,7.2,36,7.2s-4.8,2.1-4.8,4.8S33.4,16.8,36,16.8z">
     </path>
     <path class="st24" d="M60,24c-6.6,0-12-5.4-12-12S53.4,0,60,0s12,5.4,12,12S66.6,24,60,24z M60,16.8c2.6,0,4.8-2.1,4.8-4.8
					S62.6,7.2,60,7.2s-4.8,2.1-4.8,4.8S57.4,16.8,60,16.8z">
     </path>
     <path class="st25" d="M84,24c-6.6,0-12-5.4-12-12S77.4,0,84,0s12,5.4,12,12S90.6,24,84,24z M84,16.8c2.6,0,4.8-2.1,4.8-4.8
					S86.6,7.2,84,7.2s-4.8,2.1-4.8,4.8S81.4,16.8,84,16.8z">
     </path>
     <path class="st26" d="M108,24c-6.6,0-12-5.4-12-12s5.4-12,12-12s12,5.4,12,12S114.6,24,108,24z M108,16.8c2.6,0,4.8-2.1,4.8-4.8
					s-2.1-4.8-4.8-4.8s-4.8,2.1-4.8,4.8S105.4,16.8,108,16.8z">
     </path>
     <path class="st27" d="M132,24c-6.6,0-12-5.4-12-12s5.4-12,12-12s12,5.4,12,12S138.6,24,132,24z M132,16.8c2.6,0,4.8-2.1,4.8-4.8
					s-2.1-4.8-4.8-4.8s-4.8,2.1-4.8,4.8S129.4,16.8,132,16.8z">
     </path>
     <path class="st28" d="M156,24c-6.6,0-12-5.4-12-12s5.4-12,12-12s12,5.4,12,12S162.6,24,156,24z M156,16.8c2.6,0,4.8-2.1,4.8-4.8
					s-2.1-4.8-4.8-4.8s-4.8,2.1-4.8,4.8S153.4,16.8,156,16.8z">
     </path>
     <path class="st27" d="M180,24c-6.6,0-12-5.4-12-12s5.4-12,12-12s12,5.4,12,12S186.6,24,180,24z M180,16.8c2.6,0,4.8-2.1,4.8-4.8
					s-2.1-4.8-4.8-4.8s-4.8,2.1-4.8,4.8S177.4,16.8,180,16.8z">
     </path>
     <path class="st29" d="M12,48C5.4,48,0,42.6,0,36s5.4-12,12-12s12,5.4,12,12S18.6,48,12,48z M12,40.8c2.6,0,4.8-2.1,4.8-4.8
					s-2.1-4.8-4.8-4.8S7.2,33.4,7.2,36S9.4,40.8,12,40.8z">
     </path>
     <path class="st30" d="M36,48c-6.6,0-12-5.4-12-12s5.4-12,12-12s12,5.4,12,12S42.6,48,36,48z M36,40.8c2.6,0,4.8-2.1,4.8-4.8
					s-2.1-4.8-4.8-4.8s-4.8,2.1-4.8,4.8S33.4,40.8,36,40.8z">
     </path>
     <path class="st31" d="M60,48c-6.6,0-12-5.4-12-12s5.4-12,12-12s12,5.4,12,12S66.6,48,60,48z M60,40.8c2.6,0,4.8-2.1,4.8-4.8
					s-2.1-4.8-4.8-4.8s-4.8,2.1-4.8,4.8S57.4,40.8,60,40.8z">
     </path>
     <path class="st32" d="M84,48c-6.6,0-12-5.4-12-12s5.4-12,12-12s12,5.4,12,12S90.6,48,84,48z M84,40.8c2.6,0,4.8-2.1,4.8-4.8
					s-2.1-4.8-4.8-4.8s-4.8,2.1-4.8,4.8S81.4,40.8,84,40.8z">
     </path>
     <path class="st33" d="M108,48c-6.6,0-12-5.4-12-12s5.4-12,12-12s12,5.4,12,12S114.6,48,108,48z M108,40.8c2.6,0,4.8-2.1,4.8-4.8
					s-2.1-4.8-4.8-4.8s-4.8,2.1-4.8,4.8S105.4,40.8,108,40.8z">
     </path>
     <path class="st34" d="M132,48c-6.6,0-12-5.4-12-12s5.4-12,12-12s12,5.4,12,12S138.6,48,132,48z M132,40.8c2.6,0,4.8-2.1,4.8-4.8
					s-2.1-4.8-4.8-4.8s-4.8,2.1-4.8,4.8S129.4,40.8,132,40.8z M156,48c-6.6,0-12-5.4-12-12s5.4-12,12-12s12,5.4,12,12
					S162.6,48,156,48z M156,40.8c2.6,0,4.8-2.1,4.8-4.8s-2.1-4.8-4.8-4.8s-4.8,2.1-4.8,4.8S153.4,40.8,156,40.8z M180,48
					c-6.6,0-12-5.4-12-12s5.4-12,12-12s12,5.4,12,12S186.6,48,180,48z M180,40.8c2.6,0,4.8-2.1,4.8-4.8s-2.1-4.8-4.8-4.8
					s-4.8,2.1-4.8,4.8S177.4,40.8,180,40.8z">
     </path>
     <path class="st35" d="M12,72C5.4,72,0,66.6,0,60s5.4-12,12-12s12,5.4,12,12S18.6,72,12,72z M12,64.8c2.6,0,4.8-2.1,4.8-4.8
					s-2.1-4.8-4.8-4.8S7.2,57.4,7.2,60S9.4,64.8,12,64.8z">
     </path>
     <path class="st36" d="M36,72c-6.6,0-12-5.4-12-12s5.4-12,12-12s12,5.4,12,12S42.6,72,36,72z M36,64.8c2.6,0,4.8-2.1,4.8-4.8
					s-2.1-4.8-4.8-4.8s-4.8,2.1-4.8,4.8S33.4,64.8,36,64.8z">
     </path>
     <path class="st37" d="M60,72c-6.6,0-12-5.4-12-12s5.4-12,12-12s12,5.4,12,12S66.6,72,60,72z M60,64.8c2.6,0,4.8-2.1,4.8-4.8
					s-2.1-4.8-4.8-4.8s-4.8,2.1-4.8,4.8S57.4,64.8,60,64.8z">
     </path>
     <path class="st38" d="M84,72c-6.6,0-12-5.4-12-12s5.4-12,12-12s12,5.4,12,12S90.6,72,84,72z M84,64.8c2.6,0,4.8-2.1,4.8-4.8
					s-2.1-4.8-4.8-4.8s-4.8,2.1-4.8,4.8S81.4,64.8,84,64.8z">
     </path>
     <path class="st39" d="M108,72c-6.6,0-12-5.4-12-12s5.4-12,12-12s12,5.4,12,12S114.6,72,108,72z M108,64.8c2.6,0,4.8-2.1,4.8-4.8
					s-2.1-4.8-4.8-4.8s-4.8,2.1-4.8,4.8S105.4,64.8,108,64.8z">
     </path>
     <path class="st40" d="M132,72c-6.6,0-12-5.4-12-12s5.4-12,12-12s12,5.4,12,12S138.6,72,132,72z M132,64.8c2.6,0,4.8-2.1,4.8-4.8
					s-2.1-4.8-4.8-4.8s-4.8,2.1-4.8,4.8S129.4,64.8,132,64.8z">
     </path>
     <path class="st27" d="M156,72c-6.6,0-12-5.4-12-12s5.4-12,12-12s12,5.4,12,12S162.6,72,156,72z M156,64.8c2.6,0,4.8-2.1,4.8-4.8
					s-2.1-4.8-4.8-4.8s-4.8,2.1-4.8,4.8S153.4,64.8,156,64.8z M180,72c-6.6,0-12-5.4-12-12s5.4-12,12-12s12,5.4,12,12
					S186.6,72,180,72z M180,64.8c2.6,0,4.8-2.1,4.8-4.8s-2.1-4.8-4.8-4.8s-4.8,2.1-4.8,4.8S177.4,64.8,180,64.8z">
     </path>
    </g>
    <g transform="translate(7.25 7.25)">
     <path class="st41" d="M4.8,33.5c2.8,0,4.7-2.3,4.8-4.7s-3.7-9.5-3.7-12.5c0-3,3.7-8.9,3.7-11.5S7.5,0,4.8,0C2,0,0,2.2,0,4.8
					s3.7,8.5,3.7,11.5c0,3-3.7,10-3.7,12.5C0,31.2,2,33.5,4.8,33.5z">
     </path>
     <path class="st41" d="M4.8,57.5c2.8,0,4.7-2.3,4.8-4.7s-3.7-9.5-3.7-12.5s3.7-8.9,3.7-11.5S7.5,24,4.8,24C2,24,0,26.2,0,28.8
					s3.7,8.5,3.7,11.5c0,3-3.7,10-3.7,12.5C0,55.2,2,57.5,4.8,57.5z M28.8,33.5c2.8,0,4.7-2.3,4.8-4.7s-3.7-9.5-3.7-12.5
					s3.7-8.9,3.7-11.5S31.5,0,28.8,0C26,0,24,2.2,24,4.8s3.7,8.5,3.7,11.5c0,3-3.7,10-3.7,12.5C24,31.2,26,33.5,28.8,33.5z">
     </path>
     <path class="st41" d="M28.8,57.5c2.8,0,4.7-2.3,4.8-4.7s-3.7-9.5-3.7-12.5s3.7-8.9,3.7-11.5s-2-4.8-4.8-4.8
					C26,24,24,26.2,24,28.8s3.7,8.5,3.7,11.5c0,3-3.7,10-3.7,12.5C24,55.2,26,57.5,28.8,57.5z M52.8,33.5c2.8,0,4.7-2.3,4.8-4.7
					s-3.7-9.5-3.7-12.5c0-3,3.7-8.9,3.7-11.5S55.5,0,52.8,0C50,0,48,2.2,48,4.8s3.7,8.5,3.7,11.5c0,3-3.7,10-3.7,12.5
					C48,31.2,50,33.5,52.8,33.5z">
     </path>
     <path class="st41" d="M52.8,57.5c2.8,0,4.7-2.3,4.8-4.7s-3.7-9.5-3.7-12.5c0-3,3.7-8.9,3.7-11.5s-2-4.8-4.8-4.8
					C50,24,48,26.2,48,28.8s3.7,8.5,3.7,11.5c0,3-3.7,10-3.7,12.5C48,55.2,50,57.5,52.8,57.5z M76.8,33.5c2.8,0,4.7-2.3,4.8-4.7
					s-3.7-9.5-3.7-12.5s3.7-8.9,3.7-11.5S79.5,0,76.8,0C74,0,72,2.2,72,4.8s3.7,8.5,3.7,11.5c0,3-3.7,10-3.7,12.5
					C72,31.2,74,33.5,76.8,33.5z">
     </path>
     <path class="st41" d="M76.8,57.5c2.8,0,4.7-2.3,4.8-4.7s-3.7-9.5-3.7-12.5s3.7-8.9,3.7-11.5s-2-4.8-4.8-4.8
					C74,24,72,26.2,72,28.8s3.7,8.5,3.7,11.5c0,3-3.7,10-3.7,12.5C72,55.2,74,57.5,76.8,57.5z M100.8,33.5c2.8,0,4.7-2.3,4.8-4.7
					s-3.7-9.5-3.7-12.5s3.7-8.9,3.7-11.5s-2-4.8-4.8-4.8C98,0,96,2.2,96,4.8s3.7,8.5,3.7,11.5c0,3-3.7,10-3.7,12.5
					C96,31.2,98,33.5,100.8,33.5z">
     </path>
     <path class="st41" d="M100.8,57.5c2.8,0,4.7-2.3,4.8-4.7s-3.7-9.5-3.7-12.5s3.7-8.9,3.7-11.5s-2-4.8-4.8-4.8
					C98,24,96,26.2,96,28.8s3.7,8.5,3.7,11.5c0,3-3.7,10-3.7,12.5C96,55.2,98,57.5,100.8,57.5z M124.8,33.5c2.8,0,4.7-2.3,4.8-4.7
					s-3.7-9.5-3.7-12.5s3.7-8.9,3.7-11.5s-2-4.8-4.8-4.8C122,0,120,2.2,120,4.8s3.7,8.5,3.7,11.5c0,3-3.7,10-3.7,12.5
					C120,31.2,122,33.5,124.8,33.5z">
     </path>
     <path class="st41" d="M124.8,57.5c2.8,0,4.7-2.3,4.8-4.7s-3.7-9.5-3.7-12.5s3.7-8.9,3.7-11.5s-2-4.8-4.8-4.8
					c-2.8,0-4.8,2.2-4.8,4.8s3.7,8.5,3.7,11.5c0,3-3.7,10-3.7,12.5C120,55.2,122,57.5,124.8,57.5z M148.8,33.5
					c2.8,0,4.7-2.3,4.8-4.7s-3.7-9.5-3.7-12.5s3.7-8.9,3.7-11.5s-2-4.8-4.8-4.8C146,0,144,2.2,144,4.8s3.7,8.5,3.7,11.5
					c0,3-3.7,10-3.7,12.5C144,31.2,146,33.5,148.8,33.5z">
     </path>
     <path class="st41" d="M148.8,57.5c2.8,0,4.7-2.3,4.8-4.7s-3.7-9.5-3.7-12.5s3.7-8.9,3.7-11.5s-2-4.8-4.8-4.8
					c-2.8,0-4.8,2.2-4.8,4.8s3.7,8.5,3.7,11.5c0,3-3.7,10-3.7,12.5C144,55.2,146,57.5,148.8,57.5z M172.8,33.5
					c2.8,0,4.7-2.3,4.8-4.7s-3.7-9.5-3.7-12.5s3.7-8.9,3.7-11.5s-2-4.8-4.8-4.8C170,0,168,2.2,168,4.8s3.7,8.5,3.7,11.5
					c0,3-3.7,10-3.7,12.5C168,31.2,170,33.5,172.8,33.5z">
     </path>
     <path class="st41" d="M172.8,57.5c2.8,0,4.7-2.3,4.8-4.7s-3.7-9.5-3.7-12.5s3.7-8.9,3.7-11.5s-2-4.8-4.8-4.8
					c-2.8,0-4.8,2.2-4.8,4.8s3.7,8.5,3.7,11.5c0,3-3.7,10-3.7,12.5C168,55.2,170,57.5,172.8,57.5z">
     </path>
    </g>
    <g transform="translate(7.25 7.25)">
     <path class="st42" d="M0,4.8c0,2.8,2.3,4.7,4.7,4.8c2.5,0,9.5-3.7,12.5-3.7s8.9,3.7,11.5,3.7s4.8-2,4.8-4.8
					C33.5,2,31.3,0,28.8,0s-8.5,3.7-11.5,3.7c-3,0-10-3.7-12.5-3.7C2.3,0,0,2,0,4.8z">
     </path>
     <path class="st42" d="M24,4.8c0,2.8,2.3,4.7,4.7,4.8s9.5-3.7,12.5-3.7c3,0,8.9,3.7,11.5,3.7s4.8-2,4.8-4.8C57.5,2,55.3,0,52.8,0
					s-8.5,3.7-11.5,3.7c-3,0-10-3.7-12.5-3.7C26.3,0,24,2,24,4.8z">
     </path>
     <path class="st42" d="M48,4.8c0,2.8,2.3,4.7,4.7,4.8s9.5-3.7,12.5-3.7s8.9,3.7,11.5,3.7s4.8-2,4.8-4.8C81.5,2,79.3,0,76.8,0
					s-8.5,3.7-11.5,3.7c-3,0-10-3.7-12.5-3.7C50.3,0,48,2,48,4.8z">
     </path>
     <path class="st42" d="M72,4.8c0,2.8,2.3,4.7,4.7,4.8s9.5-3.7,12.5-3.7s8.9,3.7,11.5,3.7s4.8-2,4.8-4.8c0-2.8-2.2-4.8-4.8-4.8
					s-8.5,3.7-11.5,3.7c-3,0-10-3.7-12.5-3.7C74.3,0,72,2,72,4.8z">
     </path>
     <path class="st42" d="M96,4.8c0,2.8,2.3,4.7,4.7,4.8s9.5-3.7,12.5-3.7s8.9,3.7,11.5,3.7s4.8-2,4.8-4.8c0-2.8-2.2-4.8-4.8-4.8
					s-8.5,3.7-11.5,3.7c-3,0-10-3.7-12.5-3.7C98.3,0,96,2,96,4.8z">
     </path>
     <path class="st42" d="M120,4.8c0,2.8,2.3,4.7,4.7,4.8s9.5-3.7,12.5-3.7s8.9,3.7,11.5,3.7s4.8-2,4.8-4.8c0-2.8-2.2-4.8-4.8-4.8
					s-8.5,3.7-11.5,3.7c-3,0-10-3.7-12.5-3.7C122.3,0,120,2,120,4.8z">
     </path>
     <path class="st42" d="M144,4.8c0,2.8,2.3,4.7,4.7,4.8c2.5,0,9.5-3.7,12.5-3.7s8.9,3.7,11.5,3.7s4.8-2,4.8-4.8
					c0-2.8-2.2-4.8-4.8-4.8s-8.5,3.7-11.5,3.7c-3,0-10-3.7-12.5-3.7C146.3,0,144,2,144,4.8z">
     </path>
     <path class="st42" d="M0,28.8c0,2.8,2.3,4.7,4.7,4.8s9.5-3.7,12.5-3.7s8.9,3.7,11.5,3.7s4.8-2,4.8-4.8c0-2.8-2.2-4.8-4.8-4.8
					s-8.5,3.7-11.5,3.7c-3,0-10-3.7-12.5-3.7C2.3,24,0,26,0,28.8z">
     </path>
     <path class="st42" d="M24,28.8c0,2.8,2.3,4.7,4.7,4.8s9.5-3.7,12.5-3.7c3,0,8.9,3.7,11.5,3.7s4.8-2,4.8-4.8
					c0-2.8-2.2-4.8-4.8-4.8s-8.5,3.7-11.5,3.7c-3,0-10-3.7-12.5-3.7C26.3,24,24,26,24,28.8z">
     </path>
     <path class="st42" d="M48,28.8c0,2.8,2.3,4.7,4.7,4.8s9.5-3.7,12.5-3.7s8.9,3.7,11.5,3.7s4.8-2,4.8-4.8c0-2.8-2.2-4.8-4.8-4.8
					s-8.5,3.7-11.5,3.7c-3,0-10-3.7-12.5-3.7C50.3,24,48,26,48,28.8z">
     </path>
     <path class="st42" d="M72,28.8c0,2.8,2.3,4.7,4.7,4.8s9.5-3.7,12.5-3.7s8.9,3.7,11.5,3.7s4.8-2,4.8-4.8c0-2.8-2.2-4.8-4.8-4.8
					s-8.5,3.7-11.5,3.7c-3,0-10-3.7-12.5-3.7C74.3,24,72,26,72,28.8z">
     </path>
     <path class="st42" d="M96,28.8c0,2.8,2.3,4.7,4.7,4.8s9.5-3.7,12.5-3.7s8.9,3.7,11.5,3.7s4.8-2,4.8-4.8c0-2.8-2.2-4.8-4.8-4.8
					s-8.5,3.7-11.5,3.7c-3,0-10-3.7-12.5-3.7C98.3,24,96,26,96,28.8z">
     </path>
     <path class="st42" d="M120,28.8c0,2.8,2.3,4.7,4.7,4.8s9.5-3.7,12.5-3.7s8.9,3.7,11.5,3.7s4.8-2,4.8-4.8c0-2.8-2.2-4.8-4.8-4.8
					s-8.5,3.7-11.5,3.7c-3,0-10-3.7-12.5-3.7C122.3,24,120,26,120,28.8z">
     </path>
     <path class="st42" d="M144,28.8c0,2.8,2.3,4.7,4.7,4.8c2.5,0,9.5-3.7,12.5-3.7s8.9,3.7,11.5,3.7s4.8-2,4.8-4.8
					c0-2.8-2.2-4.8-4.8-4.8s-8.5,3.7-11.5,3.7c-3,0-10-3.7-12.5-3.7C146.3,24,144,26,144,28.8z">
     </path>
     <path class="st42" d="M0,52.8c0,2.8,2.3,4.7,4.7,4.8c2.5,0,9.5-3.7,12.5-3.7c3,0,8.9,3.7,11.5,3.7s4.8-2,4.8-4.8
					c0-2.8-2.2-4.8-4.8-4.8s-8.5,3.7-11.5,3.7c-3,0-10-3.7-12.5-3.7C2.3,48,0,50,0,52.8z">
     </path>
     <path class="st42" d="M24,52.8c0,2.8,2.3,4.7,4.7,4.8c2.5,0,9.5-3.7,12.5-3.7c3,0,8.9,3.7,11.5,3.7s4.8-2,4.8-4.8
					c0-2.8-2.2-4.8-4.8-4.8s-8.5,3.7-11.5,3.7c-3,0-10-3.7-12.5-3.7C26.3,48,24,50,24,52.8z">
     </path>
     <path class="st42" d="M48,52.8c0,2.8,2.3,4.7,4.7,4.8c2.5,0,9.5-3.7,12.5-3.7s8.9,3.7,11.5,3.7s4.8-2,4.8-4.8
					c0-2.8-2.2-4.8-4.8-4.8s-8.5,3.7-11.5,3.7c-3,0-10-3.7-12.5-3.7C50.3,48,48,50,48,52.8z">
     </path>
     <path class="st42" d="M72,52.8c0,2.8,2.3,4.7,4.7,4.8s9.5-3.7,12.5-3.7s8.9,3.7,11.5,3.7s4.8-2,4.8-4.8c0-2.8-2.2-4.8-4.8-4.8
					s-8.5,3.7-11.5,3.7c-3,0-10-3.7-12.5-3.7C74.3,48,72,50,72,52.8z">
     </path>
     <path class="st42" d="M96,52.8c0,2.8,2.3,4.7,4.7,4.8s9.5-3.7,12.5-3.7s8.9,3.7,11.5,3.7s4.8-2,4.8-4.8c0-2.8-2.2-4.8-4.8-4.8
					s-8.5,3.7-11.5,3.7c-3,0-10-3.7-12.5-3.7C98.3,48,96,50,96,52.8z">
     </path>
     <path class="st42" d="M120,52.8c0,2.8,2.3,4.7,4.7,4.8s9.5-3.7,12.5-3.7s8.9,3.7,11.5,3.7s4.8-2,4.8-4.8c0-2.8-2.2-4.8-4.8-4.8
					s-8.5,3.7-11.5,3.7c-3,0-10-3.7-12.5-3.7C122.3,48,120,50,120,52.8z">
     </path>
     <path class="st42" d="M144,52.8c0,2.8,2.3,4.7,4.7,4.8c2.5,0,9.5-3.7,12.5-3.7s8.9,3.7,11.5,3.7s4.8-2,4.8-4.8
					c0-2.8-2.2-4.8-4.8-4.8s-8.5,3.7-11.5,3.7c-3,0-10-3.7-12.5-3.7C146.3,48,144,50,144,52.8z">
     </path>
    </g>
    <g transform="translate(7.25 7.25)">
     <circle class="st43" cx="4.8" cy="4.8" r="4.8">
     </circle>
     <circle class="st44" cx="28.8" cy="4.8" r="4.8">
     </circle>
     <circle class="st45" cx="52.8" cy="4.8" r="4.8">
     </circle>
     <circle class="st46" cx="76.8" cy="4.8" r="4.8">
     </circle>
     <circle class="st47" cx="100.8" cy="4.8" r="4.8">
     </circle>
     <circle class="st48" cx="124.8" cy="4.8" r="4.8">
     </circle>
     <circle class="st49" cx="148.8" cy="4.8" r="4.8">
     </circle>
     <circle class="st50" cx="172.8" cy="4.8" r="4.8">
     </circle>
     <circle class="st51" cx="4.8" cy="28.8" r="4.8">
     </circle>
     <circle class="st52" cx="28.8" cy="28.8" r="4.8">
     </circle>
     <circle class="st53" cx="52.8" cy="28.8" r="4.8">
     </circle>
     <circle class="st54" cx="76.8" cy="28.8" r="4.8">
     </circle>
     <circle class="st55" cx="100.8" cy="28.8" r="4.8">
     </circle>
     <circle class="st56" cx="124.8" cy="28.8" r="4.8">
     </circle>
     <circle class="st49" cx="148.8" cy="28.8" r="4.8">
     </circle>
     <circle class="st57" cx="172.8" cy="28.8" r="4.8">
     </circle>
     <circle class="st58" cx="4.8" cy="52.8" r="4.8">
     </circle>
     <circle class="st59" cx="28.8" cy="52.8" r="4.8">
     </circle>
     <circle class="st60" cx="52.8" cy="52.8" r="4.8">
     </circle>
     <circle class="st61" cx="76.8" cy="52.8" r="4.8">
     </circle>
     <circle class="st62" cx="100.8" cy="52.8" r="4.8">
     </circle>
     <circle class="st48" cx="124.8" cy="52.8" r="4.8">
     </circle>
     <circle class="st49" cx="148.8" cy="52.8" r="4.8">
     </circle>
     <circle class="st63" cx="172.8" cy="52.8" r="4.8">
     </circle>
    </g>
   </g>
  </g>
 </g>
</svg>